# xmcd
#
# Track frame offsets: 
#        150
#        28056
#        72488
#        103215
#        135983
#        197630
#        238542
#
# Disc length: 3916 seconds
#
# Revision: 2
# Processed by: cddbd v1.5.2PL0 Copyright (c) Steve Scherf et al.
# Submitted via: ExactAudioCopyFreeDBPlugin 1.0
#
DISCID=5f0f4a07
DTITLE=Arbor Ira - Meine Träume, Vergangene... [digipak, Naturmacht Pr
DTITLE=oductions NP020]
DYEAR=2010
DGENRE=Doom Death Metal
TTITLE0=A Day Is Born
TTITLE1=Unlebendig
TTITLE2=Platz der Sorgen
TTITLE3=Here I wait for you
TTITLE4=Ein gar teuflisch Gift
TTITLE5=Winter im Herz
TTITLE6=Everyday
EXTD=
EXTT0=
EXTT1=
EXTT2=
EXTT3=
EXTT4=
EXTT5=
EXTT6=
PLAYORDER=
